<svg width="24" height="24" viewBox="0 0 24 24" fill="none" xmlns="http://www.w3.org/2000/svg">
<path d="M10.4062 20.7567V14.3881C10.4062 13.9485 10.7627 13.592 11.2023 13.592H20.7552C21.1948 13.592 21.5512 13.9485 21.5512 14.3881V20.7567C21.5512 21.1963 21.1948 21.5528 20.7552 21.5528H11.2023C10.7627 21.5528 10.4062 21.1963 10.4062 20.7567Z" stroke="#2B2D42" stroke-width="1.25" stroke-linecap="round" stroke-linejoin="round"/>
<path d="M2.44531 20.7567V14.3881C2.44531 13.9485 2.80173 13.592 3.24138 13.592H6.44159C6.88125 13.592 7.23766 13.9485 7.23766 14.3881V20.7567C7.23766 21.1963 6.88125 21.5528 6.44159 21.5528H3.24138C2.80173 21.5528 2.44531 21.1963 2.44531 20.7567Z" stroke="#2B2D42" stroke-width="1.25" stroke-linecap="round" stroke-linejoin="round"/>
<path d="M2.44531 9.61166V3.24309C2.44531 2.80344 2.80173 2.44702 3.24138 2.44702H12.7942C13.2339 2.44702 13.5903 2.80344 13.5903 3.24309V9.61166C13.5903 10.0513 13.2339 10.4077 12.7942 10.4077H3.24138C2.80173 10.4077 2.44531 10.0513 2.44531 9.61166Z" stroke="#2B2D42" stroke-width="1.25" stroke-linecap="round" stroke-linejoin="round"/>
<path d="M16.7578 9.61166V3.24309C16.7578 2.80344 17.1141 2.44702 17.5539 2.44702H20.7541C21.1937 2.44702 21.5502 2.80344 21.5502 3.24309V9.61166C21.5502 10.0513 21.1937 10.4077 20.7541 10.4077H17.5539C17.1141 10.4077 16.7578 10.0513 16.7578 9.61166Z" stroke="#2B2D42" stroke-width="1.25" stroke-linecap="round" stroke-linejoin="round"/>
</svg>
