<svg width="24" height="24" viewBox="0 0 24 24" fill="none" xmlns="http://www.w3.org/2000/svg">
<g clip-path="url(#clip0_1130_13526)">
<path d="M22.4714 11.5266L12.4714 1.52663C12.3465 1.40246 12.1775 1.33276 12.0014 1.33276C11.8253 1.33276 11.6563 1.40246 11.5314 1.52663L1.5314 11.5266C1.42218 11.6542 1.36511 11.8182 1.37159 11.986C1.37807 12.1538 1.44763 12.3129 1.56636 12.4317C1.68509 12.5504 1.84425 12.62 2.01203 12.6264C2.17981 12.6329 2.34386 12.5758 2.4714 12.4666L11.9981 2.93996L21.5247 12.4733C21.6523 12.5825 21.8163 12.6396 21.9841 12.6331C22.1519 12.6266 22.311 12.5571 22.4298 12.4383C22.5485 12.3196 22.6181 12.1604 22.6245 11.9927C22.631 11.8249 22.574 11.6608 22.4647 11.5333L22.4714 11.5266Z" fill="#2B2D42"/>
<path d="M18.6667 21.3334H15.3333V14.6668H8.66667V21.3334H5.33333V12.0001L4 13.3334V21.3334C4 21.687 4.14048 22.0262 4.39052 22.2762C4.64057 22.5263 4.97971 22.6668 5.33333 22.6668H10V16.0001H14V22.6668H18.6667C19.0203 22.6668 19.3594 22.5263 19.6095 22.2762C19.8595 22.0262 20 21.687 20 21.3334V13.1734L18.6667 11.8401V21.3334Z" fill="#2B2D42"/>
</g>
<defs>
<clipPath id="clip0_1130_13526">
<rect width="24" height="24" fill="white"/>
</clipPath>
</defs>
</svg>
