<svg width="24" height="24" viewBox="0 0 24 24" fill="none" xmlns="http://www.w3.org/2000/svg">
<g clip-path="url(#clip0_1130_13542)">
<path d="M0.5 12C0.5 13.5102 0.797456 15.0056 1.37539 16.4009C1.95331 17.7961 2.8004 19.0639 3.86827 20.1317C4.93615 21.1996 6.2039 22.0467 7.59914 22.6246C8.99438 23.2025 10.4898 23.5 12 23.5C13.5102 23.5 15.0056 23.2025 16.4009 22.6246C17.7961 22.0467 19.0639 21.1996 20.1317 20.1317C21.1996 19.0639 22.0467 17.7961 22.6246 16.4009C23.2025 15.0056 23.5 13.5102 23.5 12C23.5 10.4898 23.2025 8.99438 22.6246 7.59914C22.0467 6.2039 21.1996 4.93615 20.1317 3.86827C19.0639 2.8004 17.7961 1.95331 16.4009 1.37539C15.0056 0.797456 13.5102 0.5 12 0.5C10.4898 0.5 8.99438 0.797456 7.59914 1.37539C6.2039 1.95331 4.93615 2.8004 3.86827 3.86827C2.8004 4.93615 1.95331 6.2039 1.37539 7.59914C0.797456 8.99438 0.5 10.4898 0.5 12Z" stroke="#2B2D42" stroke-width="1.3" stroke-linecap="round" stroke-linejoin="round"/>
<path d="M8.22852 5.46704C7.08183 6.12921 6.12962 7.08153 5.46759 8.2283C4.80556 9.37507 4.45703 10.6759 4.45703 12C4.45703 13.3242 4.80556 14.625 5.46759 15.7718C6.12962 16.9186 7.08183 17.8709 8.22852 18.533" stroke="#2B2D42" stroke-width="1.3" stroke-linecap="round" stroke-linejoin="round"/>
<path d="M15.7695 18.533C16.9162 17.8709 17.8684 16.9186 18.5305 15.7718C19.1925 14.625 19.541 13.3242 19.541 12C19.541 10.6759 19.1925 9.37507 18.5305 8.2283C17.8684 7.08153 16.9162 6.12921 15.7695 5.46704" stroke="#2B2D42" stroke-width="1.3" stroke-linecap="round" stroke-linejoin="round"/>
<path d="M14.1537 7.68994H11.9987C11.7158 7.68994 11.4355 7.74568 11.1741 7.85398C10.9126 7.96228 10.675 8.12102 10.4749 8.32113C10.2748 8.52124 10.1161 8.7588 10.0078 9.02026C9.89949 9.28172 9.84375 9.56194 9.84375 9.84494C9.84375 10.1279 9.89949 10.4082 10.0078 10.6696C10.1161 10.9311 10.2748 11.1686 10.4749 11.3688C10.675 11.5689 10.9126 11.7276 11.1741 11.8359C11.4355 11.9442 11.7158 11.9999 11.9987 11.9999C12.5703 11.9999 13.1184 12.227 13.5226 12.6311C13.9267 13.0353 14.1537 13.5834 14.1537 14.1549C14.1537 14.7265 13.9267 15.2746 13.5226 15.6788C13.1184 16.0829 12.5703 16.3099 11.9987 16.3099H9.84375" stroke="#2B2D42" stroke-width="1.3" stroke-linecap="round" stroke-linejoin="round"/>
<path d="M12 7.68989V5.53589" stroke="#2B2D42" stroke-width="1.3" stroke-linecap="round" stroke-linejoin="round"/>
<path d="M12 18.4641V16.3101" stroke="#2B2D42" stroke-width="1.3" stroke-linecap="round" stroke-linejoin="round"/>
</g>
<defs>
<clipPath id="clip0_1130_13542">
<rect width="24" height="24" fill="white"/>
</clipPath>
</defs>
</svg>
